<?xml version="1.0"?>
<svg xmlns="http://www.w3.org/2000/svg" xmlns:xlink="http://www.w3.org/1999/xlink" version="1.1" viewBox="0 0 171 171" width="32px" height="32px"><g fill="none" fill-rule="nonzero" stroke="none" stroke-width="1" stroke-linecap="butt" stroke-linejoin="miter" stroke-miterlimit="10" stroke-dasharray="" stroke-dashoffset="0" font-family="none" font-weight="none" font-size="none" text-anchor="none" style="mix-blend-mode: normal"><path d="M0,171.99219v-171.99219h171.99219v171.99219z" fill="none"/><g fill="#ffffff"><g id="surface1"><path d="M85.5,16.03125c-38.30383,0 -69.46875,31.16492 -69.46875,69.46875c0,38.30383 31.16492,69.46875 69.46875,69.46875c38.30383,0 69.46875,-31.16492 69.46875,-69.46875c0,-38.30383 -31.16492,-69.46875 -69.46875,-69.46875zM85.5,26.71875c32.52173,0 58.78125,26.25952 58.78125,58.78125c0,32.52173 -26.25952,58.78125 -58.78125,58.78125c-32.52173,0 -58.78125,-26.25952 -58.78125,-58.78125c0,-32.52173 26.25952,-58.78125 58.78125,-58.78125zM80.15625,53.4375v26.71875h-26.71875v10.6875h26.71875v26.71875h10.6875v-26.71875h26.71875v-10.6875h-26.71875v-26.71875z"/></g></g></g></svg>
